{
	"asset":{
		"generator":"Khronos glTF Blender I/O v4.1.63",
		"version":"2.0"
	},
	"scene":0,
	"scenes":[
		{
			"name":"Scene",
			"nodes":[
				0
			]
		}
	],
	"nodes":[
		{
			"mesh":0,
			"name":"ground",
			"rotation":[
				0,
				0.7071068286895752,
				0,
				0.7071067094802856
			],
			"translation":[
				-69.15978240966797,
				19.49100112915039,
				3.8348841667175293
			]
		}
	],
	"meshes":[
		{
			"name":"Plane.003",
			"primitives":[
				{
					"attributes":{
						"POSITION":0,
						"NORMAL":1,
						"TEXCOORD_0":2,
						"TEXCOORD_1":3,
						"TEXCOORD_2":4
					},
					"indices":5
				}
			]
		}
	],
	"accessors":[
		{
			"bufferView":0,
			"componentType":5126,
			"count":377552,
			"max":[
				145.57794189453125,
				49.4260368347168,
				211.1546173095703
			],
			"min":[
				-139.3252716064453,
				-92.50080108642578,
				-73.67532348632812
			],
			"type":"VEC3"
		},
		{
			"bufferView":1,
			"componentType":5126,
			"count":377552,
			"type":"VEC3"
		},
		{
			"bufferView":2,
			"componentType":5126,
			"count":377552,
			"type":"VEC2"
		},
		{
			"bufferView":3,
			"componentType":5126,
			"count":377552,
			"type":"VEC2"
		},
		{
			"bufferView":4,
			"componentType":5126,
			"count":377552,
			"type":"VEC2"
		},
		{
			"bufferView":5,
			"componentType":5125,
			"count":1971171,
			"type":"SCALAR"
		}
	],
	"bufferViews":[
		{
			"buffer":0,
			"byteLength":4530624,
			"byteOffset":0,
			"target":34962
		},
		{
			"buffer":0,
			"byteLength":4530624,
			"byteOffset":4530624,
			"target":34962
		},
		{
			"buffer":0,
			"byteLength":3020416,
			"byteOffset":9061248,
			"target":34962
		},
		{
			"buffer":0,
			"byteLength":3020416,
			"byteOffset":12081664,
			"target":34962
		},
		{
			"buffer":0,
			"byteLength":3020416,
			"byteOffset":15102080,
			"target":34962
		},
		{
			"buffer":0,
			"byteLength":7884684,
			"byteOffset":18122496,
			"target":34963
		}
	],
	"buffers":[
		{
			"byteLength":26007180,
			"uri":"scene_low.bin"
		}
	]
}
